<?xml version="1.0" encoding="UTF-8"?><svg id="katman_2" xmlns="http://www.w3.org/2000/svg" viewBox="0 0 301.49 122.83"><defs><style>.cls-1{fill:#102d69;}</style></defs><g id="katman_1"><g><path class="cls-1" d="M100.35,34.96c5.15,5.03,7.73,11.9,7.73,20.86v40.36h-17.3V59.01c0-10.18-5.4-15.58-13.37-15.58-8.71,0-14.72,6.26-14.72,16.07v44.66h-17.3V59.13c0-9.94-5.27-15.7-13.49-15.7s-14.6,6.26-14.6,16.19v57.93H0V29.32H16.93v9.57c3.8-6.99,11.65-11.53,20.37-11.41,8.34,0,16.07,4.05,19.63,11.78,4.91-7.36,13.99-11.78,23.92-11.78,7.97,0,14.48,2.45,19.51,7.48Zm13.36,33V29.32h17.3v38.64c0,8.47,5.03,13.99,13.37,13.99s13.37-5.52,13.37-13.99V29.32h17.3v38.64c0,18.77-11.53,29.81-30.67,29.81s-30.67-11.04-30.67-29.81Zm65.51,0V29.32h17.3v38.64c0,8.47,5.03,13.99,13.37,13.99s13.37-5.52,13.37-13.99V29.32h17.3v38.64c0,18.77-11.53,29.81-30.67,29.81s-30.67-11.04-30.67-29.81Zm93.44-40.98v2.33h20.73v14.48h-20.73V117.55h-17.3V43.8h-10.31v-14.48h10.31v-2.7c0-8.59,2.45-15.21,7.48-19.75s11.66-6.87,19.63-6.87c6.5,0,12.88,1.59,19.02,4.91l-5.64,13.25c-4.17-1.84-7.73-2.82-10.8-2.82-7.97,0-12.39,4.17-12.39,11.65Zm21.14,75.7h-14.86v14.86h14.86v-14.86Z"/><g><path class="cls-1" d="M161.25,120.21c-2.32-.21-4.64-.47-6.97-.79-12.54-1.7-22.84-4.68-29.27-6.87-6.97-2.38-11.04-4.39-11.08-4.41-.2-.1-.28-.34-.18-.54,.1-.2,.34-.28,.54-.18,.16,.08,16.24,7.97,40.13,11.21,14.02,1.9,27.95,1.85,41.4-.15,16.81-2.5,32.91-8.07,47.86-16.55,.19-.11,.44-.04,.54,.15,.11,.19,.04,.44-.15,.54-15.04,8.54-31.24,14.14-48.15,16.65-11.3,1.68-22.93,1.99-34.67,.93Z"/><path class="cls-1" d="M174.79,122.83c-4.55,0-9.13-.21-13.72-.62h0c-2.34-.21-4.71-.48-7.06-.8-12.7-1.72-23.13-4.74-29.65-6.96-7.18-2.45-11.29-4.49-11.33-4.51-.57-.28-1-.78-1.2-1.39-.2-.61-.16-1.26,.13-1.83,.28-.57,.77-1,1.38-1.2,.61-.2,1.26-.16,1.83,.12,.16,.08,16.06,7.84,39.51,11.02,13.84,1.88,27.58,1.83,40.84-.15,16.56-2.46,32.43-7.95,47.17-16.31,.55-.32,1.2-.4,1.82-.23,.62,.17,1.14,.57,1.45,1.13,.65,1.15,.25,2.62-.9,3.27-15.26,8.66-31.69,14.34-48.85,16.89-7.02,1.04-14.18,1.56-21.42,1.56Zm69.88-19.15s0,0,0,0c0,0,0,0,0,0Z"/></g></g></g></svg>